<svg width="158" height="158" viewBox="0 0 158 158" fill="none" xmlns="http://www.w3.org/2000/svg">
<ellipse cx="78.6716" cy="78.9136" rx="78.6716" ry="78.8084" fill="white"/>
<path d="M120.306 103.795C120.306 103.795 119.588 112.613 110.858 110C109.112 109.419 107.46 109.028 105.714 108.738C107.46 111.932 109.692 115.745 114.057 119.52C120.168 125.037 121.624 125.908 121.333 127.65C120.751 128.521 119.295 128.521 118.713 128.521C112.893 127.94 112.311 127.069 109.11 126.489C112.602 129.392 116.385 133.167 116.676 133.457C117.258 134.038 117.258 134.619 116.676 135.2C116.385 135.49 115.512 136.361 109.692 136.361C108.528 136.361 106.782 136.361 105.327 136.361C95.4324 135.78 93.1043 134.038 89.0301 130.554C87.284 131.134 84.0829 132.296 79.1357 132.877C79.1357 132.877 76.8076 133.167 73.0244 133.167V157.521C74.7451 157.626 76.7783 157.743 78.5244 157.743C111.068 157.638 139.202 138.078 151.17 110C150.879 110 140.386 114.829 120.306 103.795Z" fill="#2669D5"/>
<path d="M57.6337 154.904C61.1258 155.775 64.5623 156.586 68.369 157.046V132.877C68.369 132.877 63.4218 132.006 57.6016 130.263L57.6337 154.904Z" fill="#2669D5"/>
<path d="M52.7798 128.604C51.9068 128.023 42.0124 122.796 36.7741 112.924C36.4831 112.343 36.1941 111.737 35.903 111.156C20.2611 107.896 7.67284 110.02 6.50879 110.31C15.2392 130.346 32.1238 146.386 52.7798 153.326V128.604Z" fill="#2669D5"/>
<path d="M79.0495 0C34.9582 0.420648 0.524897 34.8086 0 78.267C-1.92365e-09 89.3877 2.30955 100.778 6.50873 110.315C7.68 110.024 19.2124 107.955 35.903 111.156C32.0963 102.425 31.9172 91.3641 37.1879 83.2148C42.7514 75.0655 45.9724 71.2819 46.8509 69.2446C48.0222 66.6252 48.6078 54.6923 48.6078 54.6923V54.1102C47.4365 45.6698 49.7791 38.3937 49.7791 38.3937C49.7791 29.6623 52.4144 30.2444 55.6354 28.4981C59.1492 26.1697 61.7846 26.7518 63.2487 26.7518C63.2487 26.7518 65.884 26.4608 69.105 28.4981C72.326 30.2444 74.3758 29.9533 74.3758 38.6847C74.3758 38.6847 76.7183 45.6698 75.5471 54.4012V54.9833C75.5471 54.9833 77.3039 65.17 78.4752 70.1177C78.4752 70.4088 80.2321 72.4461 80.2321 72.7372C81.4034 73.9013 86.6741 76.5208 89.6023 79.4312C96.9228 87.2895 98.6797 92.5283 100.729 96.894C102.779 101.842 103.95 105.334 105.707 108.827C107.464 109.118 108.928 109.409 110.685 109.991C119.763 112.611 120.257 103.873 120.257 103.873C140.169 114.641 150.585 110.282 151.17 109.991C155.27 100.387 157.679 89.6158 157.679 78.5561C157.679 34.9138 122.616 0.420648 79.0495 0Z" fill="#00CCCC"/>
<path d="M65.4767 44.6974L63.4214 41.167L61.6597 44.6974C59.3108 44.6974 57.8428 45.58 57.8428 45.58C57.8428 45.58 62.8342 49.6989 62.8342 54.9945C62.8342 54.9945 62.8342 56.1713 63.715 56.1713C64.3022 56.1713 64.5958 54.9945 64.5958 54.9945C64.5958 49.9931 69.2936 45.58 69.2936 45.58C69.2936 45.58 68.1192 44.6974 65.4767 44.6974Z" fill="#E94C19"/>
<path d="M72.8158 36.4597C72.8158 36.4597 70.7605 37.3423 71.0541 39.4017C71.3477 41.4612 72.2286 40.8728 72.2286 40.8728C72.2286 40.8728 74.5774 38.8133 72.8158 36.4597Z" fill="#281730"/>
<path d="M52.8505 36.754C52.8505 36.754 54.9058 37.3424 54.6121 39.4018C54.3185 41.4612 53.4377 40.5786 53.4377 40.5786C53.4377 40.5786 51.0888 38.8134 52.8505 36.754Z" fill="#281730"/>
</svg>